# xmcd
#
# Track frame offsets:
#	150
#	13742
#	22942
#	36152
#	51892
#	66900
#	81272
#	94895
#	108150
#	122257
#	132812
#	150440
#	160977
#	174480
#	186987
#	202485
#
# Disc length: 2871 seconds
#
# Revision: 1
# Processed by: cddbd v1.5.1PL0 Copyright (c) Steve Scherf et al.
# Submitted via: CDex 1.50Beta5
#
DISCID=d20b3510
DTITLE=さまざまなアーティスト - BLUE PARADISE
DYEAR=1900
DGENRE=
TTITLE0=HAWAII
TTITLE1=NA LEI O HAWAII
TTITLE2=HAWAIIAN PARADISE
TTITLE3=KAUANOEANUEA
TTITLE4=WAIKAPU
TTITLE5=KAMALANI O KEUKAHA
TTITLE6=PAPALINA LAHILAHI
TTITLE7=THE HVILAU SONG
TTITLE8=BLUE HAWAII
TTITLE9=PEARLY SHELLS
TTITLE10=SWEET GARDENIA
TTITLE11=SWEET LEILANI
TTITLE12=PARADISE ISLAND
TTITLE13=PUA MAEOLE
TTITLE14=ALOHA OE
TTITLE15=KAIMANA HILA
EXTD=
EXTT0=
EXTT1=
EXTT2=
EXTT3=
EXTT4=
EXTT5=
EXTT6=
EXTT7=
EXTT8=
EXTT9=
EXTT10=
EXTT11=
EXTT12=
EXTT13=
EXTT14=
EXTT15=
PLAYORDER=
